<mxfile host="app.diagrams.net" modified="2024-04-18T05:36:03.403Z" agent="Mozilla/5.0 (Windows NT 10.0; Win64; x64) AppleWebKit/537.36 (KHTML, like Gecko) Chrome/123.0.0.0 Safari/537.36 Edg/123.0.0.0" etag="ku3zokHZPdHiSETKVDOy" version="24.2.1" type="github">
  <diagram name="Page-1" id="c7558073-3199-34d8-9f00-42111426c3f3">
    <mxGraphModel dx="2108" dy="521" grid="1" gridSize="10" guides="1" tooltips="1" connect="1" arrows="1" fold="1" page="1" pageScale="1" pageWidth="826" pageHeight="1169" background="none" math="0" shadow="0">
      <root>
        <mxCell id="0" />
        <mxCell id="1" parent="0" />
        <mxCell id="2" value="&lt;p style=&quot;margin: 0px; margin-top: 4px; text-align: center; text-decoration: underline;&quot;&gt;&lt;strong&gt;Process 1&lt;br&gt;&lt;/strong&gt;&lt;/p&gt;&lt;hr&gt;&lt;p style=&quot;margin: 0px; margin-left: 8px;&quot;&gt;CHECK INPUT&amp;nbsp;&lt;/p&gt;&lt;p style=&quot;margin: 0px; margin-left: 8px;&quot;&gt;FIRT START&lt;/p&gt;" style="verticalAlign=middle;align=center;overflow=fill;fontSize=12;fontFamily=Helvetica;html=1;rounded=1;fontStyle=1;strokeWidth=3;fillColor=#E6FFCC" parent="1" vertex="1">
          <mxGeometry x="236" y="236" width="110" height="90" as="geometry" />
        </mxCell>
        <mxCell id="3" value="BUTTON&#xa;INPUT" style="whiteSpace=wrap;align=center;verticalAlign=middle;fontStyle=1;strokeWidth=3;fillColor=#FFFFCC" parent="1" vertex="1">
          <mxGeometry x="246" y="126" width="90" height="60" as="geometry" />
        </mxCell>
        <mxCell id="4" value="INPUT HMI" style="whiteSpace=wrap;align=center;verticalAlign=middle;fontStyle=1;strokeWidth=3;fillColor=#FFFFCC" parent="1" vertex="1">
          <mxGeometry x="40" y="251" width="90" height="60" as="geometry" />
        </mxCell>
        <mxCell id="5" value="MAIN" style="shape=process;whiteSpace=wrap;align=center;verticalAlign=middle;size=0.0475;fontStyle=1;strokeWidth=3;fillColor=#FFCCCC" parent="1" vertex="1">
          <mxGeometry x="200.99999999999991" y="391" width="400" height="50" as="geometry" />
        </mxCell>
        <mxCell id="6" value="&lt;p style=&quot;margin: 0px; margin-top: 4px; text-align: center; text-decoration: underline;&quot;&gt;&lt;strong&gt;Process 2&lt;br&gt;&lt;/strong&gt;&lt;/p&gt;&lt;hr&gt;&lt;p style=&quot;margin: 0px; margin-left: 8px;&quot;&gt;CHECK POSION&lt;/p&gt;&lt;p style=&quot;margin: 0px; margin-left: 8px;&quot;&gt;SETPOINT&lt;/p&gt;" style="verticalAlign=middle;align=center;overflow=fill;fontSize=12;fontFamily=Helvetica;html=1;rounded=1;fontStyle=1;strokeWidth=3;fillColor=#E6FFCC" parent="1" vertex="1">
          <mxGeometry x="390" y="146" width="110" height="90" as="geometry" />
        </mxCell>
        <mxCell id="7" value="&lt;p style=&quot;margin: 0px; margin-top: 4px; text-align: center; text-decoration: underline;&quot;&gt;&lt;strong&gt;&lt;strong&gt;Process&lt;/strong&gt; 3&lt;br&gt;&lt;/strong&gt;&lt;/p&gt;&lt;hr&gt;&lt;p style=&quot;margin: 0px; margin-left: 8px;&quot;&gt;SHOW HMI&lt;/p&gt;" style="verticalAlign=middle;align=center;overflow=fill;fontSize=12;fontFamily=Helvetica;html=1;rounded=1;fontStyle=1;strokeWidth=3;fillColor=#E6FFCC" parent="1" vertex="1">
          <mxGeometry x="-10" y="371" width="110" height="90" as="geometry" />
        </mxCell>
        <mxCell id="XBqMs2SMEyaYvJYr8qza-111" value="" style="edgeStyle=orthogonalEdgeStyle;rounded=0;orthogonalLoop=1;jettySize=auto;html=1;" edge="1" parent="1" source="8" target="XBqMs2SMEyaYvJYr8qza-110">
          <mxGeometry relative="1" as="geometry" />
        </mxCell>
        <mxCell id="8" value="&lt;p style=&quot;margin: 0px; margin-top: 4px; text-align: center; text-decoration: underline;&quot;&gt;&lt;strong&gt;&lt;strong&gt;Process&lt;/strong&gt; 4&lt;br&gt;&lt;/strong&gt;&lt;/p&gt;&lt;hr&gt;&lt;p style=&quot;margin: 0px; margin-left: 8px;&quot;&gt;CONTROL&lt;/p&gt;&lt;p style=&quot;margin: 0px; margin-left: 8px;&quot;&gt;STEP&amp;nbsp;&lt;/p&gt;&lt;p style=&quot;margin: 0px; margin-left: 8px;&quot;&gt;MOTOR&lt;/p&gt;" style="verticalAlign=middle;align=center;overflow=fill;fontSize=12;fontFamily=Helvetica;html=1;rounded=1;fontStyle=1;strokeWidth=3;fillColor=#E6FFCC" parent="1" vertex="1">
          <mxGeometry x="560" y="241" width="110" height="90" as="geometry" />
        </mxCell>
        <mxCell id="9" value="&lt;p style=&quot;margin: 0px; margin-top: 4px; text-align: center; text-decoration: underline;&quot;&gt;&lt;strong&gt;&lt;strong&gt;Process&lt;/strong&gt; 5&lt;br&gt;&lt;/strong&gt;&lt;/p&gt;&lt;hr&gt;&lt;p style=&quot;margin: 0px; margin-left: 8px;&quot;&gt;IOT&lt;/p&gt;" style="verticalAlign=middle;align=center;overflow=fill;fontSize=12;fontFamily=Helvetica;html=1;rounded=1;fontStyle=1;strokeWidth=3;fillColor=#E6FFCC" parent="1" vertex="1">
          <mxGeometry x="510" y="510" width="110" height="90" as="geometry" />
        </mxCell>
        <mxCell id="XBqMs2SMEyaYvJYr8qza-96" value="" style="edgeStyle=orthogonalEdgeStyle;rounded=0;orthogonalLoop=1;jettySize=auto;html=1;fillColor=#ffe6cc;strokeColor=#CC0000;strokeWidth=2;" edge="1" parent="1" source="12" target="6">
          <mxGeometry relative="1" as="geometry" />
        </mxCell>
        <mxCell id="12" value="PHOTO&#xa;SENSOR" style="whiteSpace=wrap;align=center;verticalAlign=middle;fontStyle=1;strokeWidth=3;fillColor=#FFFFCC" parent="1" vertex="1">
          <mxGeometry x="400" y="30.00000000000002" width="90" height="60" as="geometry" />
        </mxCell>
        <mxCell id="15" value="WEB UI" style="whiteSpace=wrap;align=center;verticalAlign=middle;fontStyle=1;strokeWidth=3;fillColor=#FFFFCC" parent="1" vertex="1">
          <mxGeometry x="524.9999999999999" y="670" width="90" height="60" as="geometry" />
        </mxCell>
        <mxCell id="36" value="" style="edgeStyle=none;noEdgeStyle=1;strokeColor=#990000;strokeWidth=2" parent="1" source="3" target="2" edge="1">
          <mxGeometry width="100" height="100" relative="1" as="geometry">
            <mxPoint x="20" y="250" as="sourcePoint" />
            <mxPoint x="120" y="150" as="targetPoint" />
          </mxGeometry>
        </mxCell>
        <mxCell id="37" value="" style="edgeStyle=none;noEdgeStyle=1;strokeColor=#990000;strokeWidth=2" parent="1" source="4" target="2" edge="1">
          <mxGeometry width="100" height="100" relative="1" as="geometry">
            <mxPoint x="280" y="190" as="sourcePoint" />
            <mxPoint x="380" y="90" as="targetPoint" />
          </mxGeometry>
        </mxCell>
        <mxCell id="56" value="" style="edgeStyle=elbowEdgeStyle;elbow=horizontal;strokeColor=#990000;strokeWidth=2" parent="1" source="2" target="5" edge="1">
          <mxGeometry width="100" height="100" relative="1" as="geometry">
            <mxPoint x="50" y="500" as="sourcePoint" />
            <mxPoint x="150" y="400" as="targetPoint" />
            <Array as="points">
              <mxPoint x="291" y="360" />
            </Array>
          </mxGeometry>
        </mxCell>
        <mxCell id="59" value="" style="edgeStyle=elbowEdgeStyle;elbow=horizontal;strokeColor=#990000;strokeWidth=2" parent="1" edge="1">
          <mxGeometry width="100" height="100" relative="1" as="geometry">
            <mxPoint x="444.5" y="236" as="sourcePoint" />
            <mxPoint x="444.5" y="391" as="targetPoint" />
            <Array as="points">
              <mxPoint x="444.5" y="320" />
            </Array>
          </mxGeometry>
        </mxCell>
        <mxCell id="69" value="" style="edgeStyle=segmentEdgeStyle;strokeColor=#990000;strokeWidth=2" parent="1" source="5" target="8" edge="1">
          <mxGeometry width="100" height="100" relative="1" as="geometry">
            <mxPoint x="340" y="360" as="sourcePoint" />
            <mxPoint x="440" y="260" as="targetPoint" />
            <Array as="points">
              <mxPoint x="520" y="286" />
            </Array>
          </mxGeometry>
        </mxCell>
        <mxCell id="72" value="" style="edgeStyle=elbowEdgeStyle;elbow=vertical;strokeColor=#990000;strokeWidth=2" parent="1" source="5" target="7" edge="1">
          <mxGeometry width="100" height="100" relative="1" as="geometry">
            <mxPoint x="500" y="500" as="sourcePoint" />
            <mxPoint x="600" y="400" as="targetPoint" />
            <Array as="points">
              <mxPoint x="200" y="410" />
            </Array>
          </mxGeometry>
        </mxCell>
        <mxCell id="73" value="" style="edgeStyle=elbowEdgeStyle;elbow=vertical;strokeColor=#990000;strokeWidth=2" parent="1" source="7" target="5" edge="1">
          <mxGeometry width="100" height="100" relative="1" as="geometry">
            <mxPoint x="460" y="500" as="sourcePoint" />
            <mxPoint x="560" y="400" as="targetPoint" />
            <Array as="points">
              <mxPoint x="200" y="430" />
            </Array>
          </mxGeometry>
        </mxCell>
        <mxCell id="76" value="" style="edgeStyle=elbowEdgeStyle;elbow=horizontal;strokeColor=#990000;strokeWidth=2" parent="1" source="9" target="5" edge="1">
          <mxGeometry width="100" height="100" relative="1" as="geometry">
            <mxPoint x="420" y="580" as="sourcePoint" />
            <mxPoint x="520" y="480" as="targetPoint" />
            <Array as="points">
              <mxPoint x="570" y="470" />
            </Array>
          </mxGeometry>
        </mxCell>
        <mxCell id="77" value="" style="edgeStyle=elbowEdgeStyle;elbow=horizontal;strokeColor=#990000;strokeWidth=2" parent="1" source="5" target="9" edge="1">
          <mxGeometry width="100" height="100" relative="1" as="geometry">
            <mxPoint x="400" y="590" as="sourcePoint" />
            <mxPoint x="500" y="490" as="targetPoint" />
            <Array as="points">
              <mxPoint x="560" y="480" />
            </Array>
          </mxGeometry>
        </mxCell>
        <mxCell id="XBqMs2SMEyaYvJYr8qza-97" value="ENCODER&lt;div&gt;CONVEYER&lt;/div&gt;" style="whiteSpace=wrap;html=1;fillColor=#FFFFCC;fontStyle=1;strokeWidth=3;" vertex="1" parent="1">
          <mxGeometry x="555" y="30.00000000000002" width="120" height="60" as="geometry" />
        </mxCell>
        <mxCell id="XBqMs2SMEyaYvJYr8qza-100" value="" style="endArrow=classic;html=1;rounded=1;entryX=1;entryY=0.5;entryDx=0;entryDy=0;exitX=0.5;exitY=1;exitDx=0;exitDy=0;edgeStyle=elbowEdgeStyle;curved=0;strokeWidth=2;strokeColor=#a70606;" edge="1" parent="1" source="XBqMs2SMEyaYvJYr8qza-97" target="6">
          <mxGeometry width="50" height="50" relative="1" as="geometry">
            <mxPoint x="540" y="196" as="sourcePoint" />
            <mxPoint x="590" y="146" as="targetPoint" />
            <Array as="points">
              <mxPoint x="615" y="150" />
            </Array>
          </mxGeometry>
        </mxCell>
        <mxCell id="XBqMs2SMEyaYvJYr8qza-101" value="" style="endArrow=classic;html=1;rounded=1;entryX=0.411;entryY=0.983;entryDx=0;entryDy=0;entryPerimeter=0;exitX=0.5;exitY=0;exitDx=0;exitDy=0;edgeStyle=orthogonalEdgeStyle;strokeWidth=2;curved=0;strokeColor=#CC0000;" edge="1" parent="1" source="7" target="4">
          <mxGeometry width="50" height="50" relative="1" as="geometry">
            <mxPoint x="390" y="430" as="sourcePoint" />
            <mxPoint x="440" y="380" as="targetPoint" />
          </mxGeometry>
        </mxCell>
        <mxCell id="XBqMs2SMEyaYvJYr8qza-103" value="lengt or speed" style="text;html=1;align=center;verticalAlign=middle;resizable=0;points=[];autosize=1;strokeColor=none;fillColor=none;" vertex="1" parent="1">
          <mxGeometry x="126" y="241" width="100" height="30" as="geometry" />
        </mxCell>
        <mxCell id="XBqMs2SMEyaYvJYr8qza-104" value="start or stop" style="text;html=1;align=center;verticalAlign=middle;resizable=0;points=[];autosize=1;strokeColor=none;fillColor=none;" vertex="1" parent="1">
          <mxGeometry x="190" y="191" width="90" height="30" as="geometry" />
        </mxCell>
        <mxCell id="XBqMs2SMEyaYvJYr8qza-105" value="bool" style="text;html=1;align=center;verticalAlign=middle;resizable=0;points=[];autosize=1;strokeColor=none;fillColor=none;" vertex="1" parent="1">
          <mxGeometry x="465" y="96" width="50" height="30" as="geometry" />
        </mxCell>
        <mxCell id="XBqMs2SMEyaYvJYr8qza-106" value="speed" style="text;html=1;align=center;verticalAlign=middle;resizable=0;points=[];autosize=1;strokeColor=none;fillColor=none;" vertex="1" parent="1">
          <mxGeometry x="615" y="96" width="60" height="30" as="geometry" />
        </mxCell>
        <mxCell id="XBqMs2SMEyaYvJYr8qza-107" value="distance&lt;div&gt;real time&lt;/div&gt;" style="text;html=1;align=center;verticalAlign=middle;resizable=0;points=[];autosize=1;strokeColor=none;fillColor=none;" vertex="1" parent="1">
          <mxGeometry x="440" y="236" width="70" height="40" as="geometry" />
        </mxCell>
        <mxCell id="XBqMs2SMEyaYvJYr8qza-108" value="systerm&lt;div&gt;indicator&lt;/div&gt;" style="text;html=1;align=center;verticalAlign=middle;resizable=0;points=[];autosize=1;strokeColor=none;fillColor=none;" vertex="1" parent="1">
          <mxGeometry x="290" y="331" width="70" height="40" as="geometry" />
        </mxCell>
        <mxCell id="XBqMs2SMEyaYvJYr8qza-109" value="start&lt;div&gt;disance&lt;/div&gt;&lt;div&gt;real time&lt;/div&gt;" style="text;html=1;align=center;verticalAlign=middle;resizable=0;points=[];autosize=1;strokeColor=none;fillColor=none;" vertex="1" parent="1">
          <mxGeometry x="520" y="321" width="70" height="60" as="geometry" />
        </mxCell>
        <mxCell id="XBqMs2SMEyaYvJYr8qza-113" value="" style="edgeStyle=orthogonalEdgeStyle;rounded=0;orthogonalLoop=1;jettySize=auto;html=1;" edge="1" parent="1" source="XBqMs2SMEyaYvJYr8qza-110" target="XBqMs2SMEyaYvJYr8qza-112">
          <mxGeometry relative="1" as="geometry" />
        </mxCell>
        <mxCell id="XBqMs2SMEyaYvJYr8qza-110" value="LIMIT SPEED,&lt;div&gt;POSITON&lt;/div&gt;" style="shape=process;whiteSpace=wrap;html=1;backgroundOutline=1;fillColor=#e1d5e7;rounded=1;fontStyle=1;strokeWidth=3;strokeColor=#9673a6;" vertex="1" parent="1">
          <mxGeometry x="745" y="248" width="120" height="76" as="geometry" />
        </mxCell>
        <mxCell id="XBqMs2SMEyaYvJYr8qza-112" value="DRIVE, STEP MOTOR" style="whiteSpace=wrap;html=1;fillColor=#fff2cc;strokeColor=#d6b656;rounded=1;fontStyle=1;strokeWidth=3;arcSize=0;" vertex="1" parent="1">
          <mxGeometry x="945" y="256" width="120" height="60" as="geometry" />
        </mxCell>
        <mxCell id="XBqMs2SMEyaYvJYr8qza-114" value="pulse&lt;div&gt;positon&lt;/div&gt;&lt;div&gt;speed&lt;/div&gt;" style="text;html=1;align=center;verticalAlign=middle;resizable=0;points=[];autosize=1;strokeColor=none;fillColor=none;" vertex="1" parent="1">
          <mxGeometry x="675" y="226" width="60" height="60" as="geometry" />
        </mxCell>
        <mxCell id="XBqMs2SMEyaYvJYr8qza-115" value="pulse" style="text;html=1;align=center;verticalAlign=middle;resizable=0;points=[];autosize=1;strokeColor=none;fillColor=none;" vertex="1" parent="1">
          <mxGeometry x="885" y="241" width="50" height="30" as="geometry" />
        </mxCell>
        <mxCell id="XBqMs2SMEyaYvJYr8qza-116" value="data,&amp;nbsp;" style="text;html=1;align=center;verticalAlign=middle;resizable=0;points=[];autosize=1;strokeColor=none;fillColor=none;" vertex="1" parent="1">
          <mxGeometry x="136" y="376" width="50" height="30" as="geometry" />
        </mxCell>
        <mxCell id="XBqMs2SMEyaYvJYr8qza-117" value="data,&amp;nbsp;" style="text;html=1;align=center;verticalAlign=middle;resizable=0;points=[];autosize=1;strokeColor=none;fillColor=none;" vertex="1" parent="1">
          <mxGeometry x="580" y="461" width="50" height="30" as="geometry" />
        </mxCell>
        <mxCell id="XBqMs2SMEyaYvJYr8qza-118" value="data,&amp;nbsp;" style="text;html=1;align=center;verticalAlign=middle;resizable=0;points=[];autosize=1;strokeColor=none;fillColor=none;" vertex="1" parent="1">
          <mxGeometry x="580" y="610" width="50" height="30" as="geometry" />
        </mxCell>
        <mxCell id="XBqMs2SMEyaYvJYr8qza-119" value="" style="edgeStyle=elbowEdgeStyle;elbow=horizontal;strokeColor=#990000;strokeWidth=2" edge="1" parent="1">
          <mxGeometry width="100" height="100" relative="1" as="geometry">
            <mxPoint x="570" y="669" as="sourcePoint" />
            <mxPoint x="570" y="600" as="targetPoint" />
            <Array as="points">
              <mxPoint x="570" y="629" />
            </Array>
          </mxGeometry>
        </mxCell>
        <mxCell id="XBqMs2SMEyaYvJYr8qza-120" value="" style="edgeStyle=elbowEdgeStyle;elbow=horizontal;strokeColor=#990000;strokeWidth=2" edge="1" parent="1">
          <mxGeometry width="100" height="100" relative="1" as="geometry">
            <mxPoint x="560" y="600" as="sourcePoint" />
            <mxPoint x="560" y="669" as="targetPoint" />
            <Array as="points">
              <mxPoint x="560" y="639" />
            </Array>
          </mxGeometry>
        </mxCell>
      </root>
    </mxGraphModel>
  </diagram>
</mxfile>
